<svg width="56" height="62" viewBox="0 0 56 62" fill="none" xmlns="http://www.w3.org/2000/svg">
<path d="M51.2781 39.7359C44.1881 37.4308 36.9273 33.518 36.6369 33.3611C36.802 33.0642 39.3324 48.4018 31.7186 55.3619L29.3875 43.2258L31.1665 41.8982L34.2945 43.2258L29.3278 38.5203H26.6722L21.7055 43.2258L24.8335 41.8982L26.6125 43.2258L24.2814 55.3619C16.6676 48.399 19.2748 33.2043 19.363 33.3611C19.0756 33.518 11.8119 37.4308 4.72193 39.7359C4.72193 39.7359 1.9013 39.6155 0 56.0874C0 56.0874 20.8403 62 27.9986 62C35.1569 62 55.9972 56.0874 55.9972 56.0874C54.0987 39.6155 51.2781 39.7359 51.2781 39.7359Z" fill="#5693CA"/>
<path d="M38.2733 16.5671C38.2733 16.5671 42.722 10.1867 39.426 5.8398C38.5551 4.69145 37.0636 4.70265 37.0636 4.70265C37.0636 4.70265 36.3492 0.467738 29.1112 0.016798C22.4538 -0.394929 20.0857 6.62684 15.4549 6.30475C15.4549 6.30475 14.3932 11.1811 18.5744 16.5671H38.2733Z" fill="#5693CA"/>
<path d="M18.5631 14.3965C16.7472 13.601 16.0385 13.9651 15.5347 14.8614C15.0309 15.7549 15.7368 22.0792 17.4531 22.6058C18.879 23.0427 18.7339 21.6479 18.7339 21.6479C18.7339 21.6479 18.8022 26.0201 21.7964 28.9666L21.5944 33.1959L28.0212 36.3385L34.448 33.1959L34.2459 28.9666C37.2402 26.0201 37.3085 21.6479 37.3085 21.6479C37.3085 21.6479 37.1605 23.0427 38.5893 22.6058C40.3056 22.0792 41.0115 15.7549 40.5077 14.8614C40.0039 13.9679 39.2952 13.6038 37.4793 14.3965" fill="#5693CA"/>
</svg>
