<svg width="61" height="61" viewBox="0 0 61 61" fill="none" xmlns="http://www.w3.org/2000/svg">
<path fill-rule="evenodd" clip-rule="evenodd" d="M38.6293 33.55V37.454C53.5431 46.116 61 41.846 61 61H30.8056H30.5611H0C0 40.992 7.45691 46.116 22.3707 37.454V34.038C19.6814 32.086 19.1924 29.036 18.2144 25.376C17.7255 25.376 17.481 24.888 17.481 24.156C17.481 23.912 17.481 23.912 17.481 23.668C17.2365 23.424 16.992 22.692 16.7475 21.96C16.503 20.984 15.2806 18.544 16.2585 17.812C16.992 17.08 17.481 17.812 17.481 17.812C16.503 12.078 15.0361 4.636 22.7375 2.44C22.7375 -2.318 41.3186 -0.244002 43.519 7.442C44.497 10.614 43.2746 17.812 43.2746 17.812C43.519 17.08 44.008 17.08 44.2525 17.324C45.2305 18.056 44.2525 20.984 44.008 21.838C43.7635 22.814 43.519 23.302 43.2746 23.79V24.034C43.2746 24.522 42.7856 25.254 42.5411 25.254C41.6854 28.548 40.9519 31.964 38.6293 33.55Z" fill="#5693CA"/>
</svg>
