<svg width="71" height="71" viewBox="0 0 71 71" fill="none" xmlns="http://www.w3.org/2000/svg">
<circle cx="35.5" cy="35.5" r="34.75" stroke="#5D487A" stroke-width="1.5"/>
<g clip-path="url(#clip0)">
<path d="M50.1653 33.144C50.8878 34.1758 51.1603 35.5861 50.9086 37.0082C50.7013 38.176 50.1593 39.2285 49.3864 39.9736C48.5395 40.7866 47.5267 41.1384 46.5377 40.964C46.2593 40.9167 45.9928 41.1 45.9454 41.3779C45.895 41.6558 46.0816 41.9219 46.36 41.9692C46.5791 42.0077 46.8012 42.0283 47.0233 42.0283C48.039 42.0283 49.0577 41.6263 49.9136 40.8783C50.2127 41.3809 50.3607 42.0431 50.3252 42.7379C50.2571 44.021 49.5582 45.0943 48.6994 45.2391C48.6935 45.2391 48.6876 45.2421 48.6787 45.2421C48.6698 45.245 48.6609 45.245 48.652 45.248C48.6432 45.251 48.6372 45.2539 48.6283 45.2539C48.6195 45.2569 48.6106 45.2598 48.6047 45.2628C48.5958 45.2657 48.5899 45.2687 48.581 45.2717C48.5721 45.2746 48.5662 45.2776 48.5573 45.2805C48.5484 45.2835 48.5425 45.2894 48.5336 45.2923C48.5277 45.2953 48.5188 45.3012 48.5129 45.3042C48.5069 45.3101 48.498 45.313 48.4921 45.319C48.4862 45.3219 48.4803 45.3278 48.4714 45.3337C48.4655 45.3397 48.4596 45.3456 48.4507 45.3515C48.4447 45.3574 48.4388 45.3603 48.4329 45.3663C48.427 45.3722 48.4211 45.3781 48.4151 45.384C48.4092 45.3899 48.4033 45.3958 48.3974 45.4017C48.3914 45.4077 48.3855 45.4136 48.3826 45.4224C48.3766 45.4283 48.3737 45.4343 48.3678 45.4402C48.3618 45.4461 48.3589 45.455 48.3529 45.4609C48.35 45.4668 48.3441 45.4757 48.3411 45.4816C48.3381 45.4875 48.3322 45.4963 48.3293 45.5023C48.3263 45.5082 48.3204 45.517 48.3174 45.5259C48.3144 45.5318 48.3115 45.5407 48.3085 45.5496C48.3056 45.5584 48.3026 45.5643 48.2996 45.5732C48.2967 45.5821 48.2937 45.588 48.2937 45.5969C48.2908 45.6057 48.2878 45.6117 48.2878 45.6205C48.2848 45.6294 48.2848 45.6383 48.2819 45.6442C48.2789 45.653 48.2789 45.659 48.2759 45.6678C48.2759 45.6767 48.273 45.6856 48.273 45.6944C48.273 45.7033 48.27 45.7092 48.27 45.7181C48.27 45.727 48.27 45.7358 48.27 45.7447C48.27 45.7536 48.27 45.7595 48.27 45.7683C48.27 45.7772 48.27 45.7861 48.273 45.795C48.273 45.8009 48.273 45.8068 48.2759 45.8157C48.498 47.3678 47.5712 48.8343 46.0698 49.3073C45.824 49.3842 45.5723 49.4315 45.3176 49.4492H45.3146C44.5328 49.4995 43.7629 49.26 43.141 48.7781C42.9189 48.6037 42.5961 48.645 42.4244 48.8668C42.2497 49.0885 42.2911 49.4108 42.5132 49.5823C43.1173 50.0523 43.831 50.348 44.5802 50.4426C43.754 51.9948 42.1223 52.997 40.3248 52.997C37.784 52.997 35.6963 51.0221 35.5186 48.5297C35.5245 48.4174 35.5304 48.3021 35.5304 48.1868C35.5304 48.0715 35.5275 47.9562 35.5215 47.8438C35.6518 46.0108 36.8393 44.3906 38.5569 43.7136C38.8204 43.6101 38.9478 43.3144 38.8441 43.0513C38.7405 42.7882 38.4414 42.661 38.1808 42.7645C37.1621 43.1666 36.2796 43.8466 35.6281 44.7277C35.5926 44.775 35.5571 44.8252 35.5215 44.8755V32.2186C35.5275 32.1831 35.5334 32.1506 35.5393 32.1151C35.7081 31.305 36.3744 30.693 37.1917 30.5896C37.4494 30.563 37.6478 30.3442 37.6478 30.081C37.6478 29.8002 37.4197 29.5696 37.1355 29.5696C37.1147 29.5696 37.094 29.5696 37.0733 29.5725C36.484 29.6435 35.948 29.8889 35.5186 30.2525V23.2751C35.5126 20.9188 37.1473 19 39.1551 19C40.4847 19 41.7048 19.8633 42.3415 21.1997C41.6278 21.3327 40.9378 21.6224 40.3159 22.057C40.0849 22.2197 40.0287 22.536 40.1886 22.7696C40.3514 23.0002 40.6683 23.0563 40.9023 22.8967C41.5626 22.4355 42.3178 22.1753 43.0818 22.1428C43.3098 22.1339 43.5408 22.1457 43.7659 22.1783C44.4144 22.2729 45.0066 22.5301 45.5249 22.947C46.8219 23.9877 47.3402 25.8443 46.8634 27.5857C45.6404 27.3167 44.37 27.4793 43.2447 28.0617C41.9683 28.7181 41.0266 29.8327 40.5884 31.1957C40.5025 31.4647 40.6505 31.7515 40.92 31.8372C41.1895 31.923 41.4768 31.7751 41.5626 31.5061C42.2941 29.2266 44.749 27.9612 47.0322 28.6856C47.0352 28.6856 47.0352 28.6856 47.0381 28.6856C47.0411 28.6856 47.044 28.6856 47.047 28.6885C47.2128 28.7417 47.3757 28.8038 47.5327 28.8777C49.0844 29.5843 50.0824 31.1454 50.0764 32.8513C50.0764 32.8543 50.0764 32.8543 50.0764 32.8572C50.0764 32.869 50.0764 32.8779 50.0764 32.8897C50.0764 32.8957 50.0764 32.9016 50.0764 32.9075C50.0764 32.9193 50.0794 32.9282 50.0824 32.937C50.0824 32.943 50.0853 32.9489 50.0853 32.9577C50.0883 32.9666 50.0883 32.9755 50.0912 32.9843C50.0942 32.9932 50.0942 32.9991 50.0972 33.008C50.1001 33.0139 50.1031 33.0228 50.106 33.0287C50.109 33.0376 50.112 33.0464 50.1149 33.0553C50.1179 33.0612 50.1209 33.0671 50.1238 33.073C50.1297 33.0819 50.1327 33.0937 50.1386 33.1026C50.1416 33.1085 50.1445 33.1115 50.1475 33.1174C50.1534 33.1263 50.1594 33.1351 50.1653 33.144C50.1653 33.144 50.1653 33.141 50.1653 33.144ZM45.4834 36.6475C45.6818 36.4464 45.6818 36.1242 45.4834 35.9261C45.2821 35.725 44.9593 35.725 44.7609 35.9261C44.6158 36.071 44.0146 35.9882 43.4135 35.459C43.8221 35.1633 44.1775 34.8115 44.4588 34.4183C45.1044 33.5165 45.3087 32.4965 45.0363 31.5416C44.9593 31.2696 44.675 31.1129 44.4025 31.1927C44.1301 31.2696 43.9731 31.5534 44.0501 31.8254C44.447 33.209 43.292 34.7583 41.4738 35.2786C40.0464 35.6866 38.5865 35.3496 37.8402 34.439C37.7011 34.2704 37.4701 34.2054 37.2628 34.2823C36.9992 34.3798 36.863 34.6755 36.9637 34.9386C36.9874 34.9977 37.017 35.051 37.0585 35.0953C37.7869 35.9793 38.9863 36.4671 40.2804 36.4671C40.7631 36.4671 41.2606 36.3991 41.7522 36.2602C42.0068 36.1863 42.2497 36.0976 42.4866 35.9941C42.5073 36.0148 42.5251 36.0355 42.5458 36.0562C42.9841 36.4937 43.4993 36.8071 44.0028 36.9431C44.1834 36.9934 44.3611 37.017 44.5269 37.017C44.9119 37.0111 45.2436 36.887 45.4834 36.6475ZM44.441 46.948C44.441 46.8031 44.3788 46.6701 44.2811 46.5755C43.6741 45.993 42.5724 45.8423 41.4708 46.1852C40.002 46.6464 39.1018 47.8083 39.4246 48.8343C39.4927 49.053 39.694 49.192 39.9132 49.192C39.9635 49.192 40.0168 49.1831 40.0672 49.1683C40.3366 49.0826 40.4877 48.7958 40.4018 48.5268C40.2745 48.1247 40.8371 47.4536 41.7788 47.1609C42.5902 46.9066 43.298 47.0456 43.5734 47.3146C43.6681 47.4063 43.7955 47.4595 43.9287 47.4595C44.0709 47.4595 44.1982 47.4033 44.29 47.3087C44.3848 47.217 44.441 47.087 44.441 46.948ZM43.5645 43.7224C44.0857 42.4482 43.6711 40.828 42.531 39.6927C41.8262 38.989 40.9348 38.5515 40.0198 38.4569C39.0662 38.3593 38.2015 38.6461 37.5826 39.264C37.3812 39.465 37.3812 39.7873 37.5826 39.9854C37.781 40.1864 38.1068 40.1835 38.3052 39.9854C39.1521 39.1398 40.7246 39.332 41.8055 40.4141C42.6583 41.2656 42.9811 42.4423 42.6109 43.341C42.5517 43.4859 42.5606 43.6515 42.6406 43.7875C42.7353 43.953 42.9071 44.0447 43.0848 44.0447C43.1706 44.0447 43.2595 44.024 43.3394 43.9767C43.446 43.9176 43.523 43.8259 43.5645 43.7224ZM42.2437 25.9981C42.4421 25.8 42.4421 25.4748 42.2437 25.2767C42.0424 25.0786 41.7196 25.0786 41.5212 25.2767C41.0089 25.7882 40.0849 25.7083 39.3772 25.123C39.3624 25.1111 39.3505 25.0993 39.3357 25.0875C39.2913 25.049 39.2498 25.0106 39.2084 24.9692C38.6457 24.4075 38.4207 23.6063 38.6605 23.0209C38.7168 22.8849 38.7109 22.7311 38.6457 22.5981C38.5184 22.3468 38.2134 22.2433 37.9587 22.3704C37.8402 22.4296 37.7573 22.5271 37.7129 22.6395C37.3339 23.5708 37.6033 24.7357 38.3851 25.5842C38.1512 26.0661 38.0653 26.5923 38.1512 27.089C38.2519 27.6744 38.5687 28.1445 39.0455 28.4136C39.1255 28.4579 39.2113 28.4816 39.2972 28.4816C39.4749 28.4816 39.6496 28.387 39.7414 28.2214C39.8806 27.976 39.7947 27.6656 39.5489 27.5266C39.1728 27.3137 39.0485 26.7757 39.2173 26.2494C39.5815 26.4534 39.9754 26.5835 40.3781 26.6219C40.4699 26.6308 40.5617 26.6367 40.6505 26.6367C41.2695 26.6337 41.8292 26.412 42.2437 25.9981Z" fill="#5D487A"/>
<path d="M34.487 32.2157V44.8755C34.4515 44.8252 34.416 44.7779 34.3804 44.7277C33.7289 43.8466 32.8435 43.1666 31.8278 42.7645C31.5642 42.661 31.2681 42.7882 31.1644 43.0513C31.0608 43.3144 31.1881 43.6101 31.4517 43.7136C33.1692 44.3906 34.3567 46.0108 34.487 47.8468C34.4811 47.9591 34.4781 48.0715 34.4781 48.1868C34.4781 48.3021 34.4811 48.4174 34.487 48.5297C34.3093 51.0221 32.2216 52.997 29.6808 52.997C27.8833 52.997 26.2486 51.9948 25.4254 50.4426C26.1716 50.348 26.8883 50.0523 27.4924 49.5823C27.7145 49.4078 27.756 49.0885 27.5812 48.8668C27.4065 48.645 27.0867 48.6037 26.8646 48.7781C26.2427 49.263 25.4728 49.4995 24.691 49.4492H24.688C24.4334 49.4315 24.1816 49.3842 23.9359 49.3073C22.4345 48.8372 21.5076 47.3678 21.7297 45.8157C21.7297 45.8097 21.7297 45.8038 21.7326 45.795C21.7326 45.7861 21.7356 45.7772 21.7356 45.7683C21.7356 45.7595 21.7356 45.7536 21.7356 45.7447C21.7356 45.7358 21.7356 45.727 21.7356 45.7181C21.7356 45.7092 21.7356 45.7033 21.7326 45.6944C21.7326 45.6856 21.7297 45.6767 21.7297 45.6678C21.7297 45.659 21.7267 45.653 21.7237 45.6442C21.7237 45.6353 21.7208 45.6264 21.7178 45.6205C21.7149 45.6117 21.7119 45.6057 21.7119 45.5969C21.7089 45.588 21.706 45.5821 21.703 45.5732C21.7001 45.5643 21.6971 45.5584 21.6941 45.5496C21.6912 45.5437 21.6882 45.5348 21.6853 45.5259C21.6823 45.517 21.6764 45.5111 21.6734 45.5023C21.6704 45.4963 21.6645 45.4875 21.6616 45.4816C21.6586 45.4757 21.6527 45.4668 21.6468 45.4609C21.6438 45.455 21.6379 45.4461 21.6319 45.4402C21.626 45.4343 21.6231 45.4283 21.6171 45.4224C21.6112 45.4165 21.6053 45.4106 21.6023 45.4017C21.5964 45.3958 21.5905 45.3899 21.5846 45.384C21.5786 45.3781 21.5727 45.3722 21.5668 45.3663C21.5609 45.3603 21.555 45.3544 21.549 45.3515C21.5431 45.3456 21.5372 45.3397 21.5283 45.3337C21.5224 45.3278 21.5165 45.3249 21.5076 45.319C21.5016 45.313 21.4928 45.3101 21.4868 45.3042C21.4809 45.3012 21.472 45.2953 21.4661 45.2923C21.4572 45.2894 21.4513 45.2835 21.4424 45.2805C21.4365 45.2776 21.4276 45.2746 21.4187 45.2717C21.4098 45.2687 21.4039 45.2657 21.395 45.2628C21.3862 45.2598 21.3773 45.2569 21.3714 45.2539C21.3625 45.251 21.3565 45.248 21.3477 45.248C21.3388 45.245 21.3299 45.245 21.321 45.2421C21.3151 45.2421 21.3092 45.2391 21.3003 45.2391C20.4415 45.0972 19.7456 44.021 19.6745 42.7379C19.636 42.0402 19.787 41.3779 20.0861 40.8753C20.942 41.6233 21.9607 42.0254 22.9764 42.0254C23.1985 42.0254 23.4206 42.0077 23.6397 41.9663C23.9181 41.916 24.1046 41.6529 24.0543 41.375C24.004 41.097 23.7404 40.9108 23.462 40.961C22.473 41.1355 21.4602 40.7837 20.6133 39.9706C19.8374 39.2256 19.2955 38.173 19.0911 37.0052C18.8394 35.5802 19.1089 34.1729 19.8344 33.141L19.8374 33.1381C19.8433 33.1292 19.8492 33.1203 19.8552 33.1115C19.8581 33.1056 19.8611 33.0997 19.864 33.0967C19.87 33.0878 19.8729 33.079 19.8788 33.0701C19.8818 33.0642 19.8848 33.0583 19.8877 33.0523C19.8907 33.0435 19.8937 33.0346 19.8966 33.0257C19.8996 33.0198 19.9025 33.011 19.9055 33.0021C19.9085 32.9962 19.9085 32.9873 19.9114 32.9814C19.9144 32.9725 19.9173 32.9637 19.9173 32.9548C19.9173 32.9489 19.9203 32.943 19.9203 32.937C19.9233 32.9252 19.9233 32.9163 19.9233 32.9045C19.9233 32.8986 19.9233 32.8927 19.9233 32.8868C19.9233 32.875 19.9262 32.8661 19.9262 32.8543C19.9262 32.8543 19.9262 32.8513 19.9262 32.8483C19.9173 31.1424 20.9183 29.5843 22.47 28.8748C22.6269 28.8038 22.7898 28.7417 22.9557 28.6885C22.9586 28.6885 22.9616 28.6856 22.9645 28.6856H22.9675C25.2536 27.9612 27.7056 29.2266 28.4371 31.5061C28.5229 31.7751 28.8102 31.923 29.0797 31.8372C29.3491 31.7515 29.4972 31.4647 29.4113 31.1957C28.9731 29.8327 28.0284 28.7181 26.755 28.0617C25.6268 27.4793 24.3593 27.3167 23.1363 27.5857C22.6595 25.8443 23.1778 23.9877 24.4748 22.947C24.993 22.5301 25.5853 22.2729 26.2338 22.1783C26.4589 22.1457 26.6899 22.1339 26.9179 22.1428C27.6819 22.1753 28.4371 22.4355 29.0974 22.8967C29.3284 23.0593 29.6482 23.0031 29.8111 22.7696C29.974 22.539 29.9177 22.2197 29.6838 22.057C29.0619 21.6224 28.3719 21.3327 27.6582 21.1997C28.2949 19.8633 29.515 19 30.8446 19C32.8524 19 34.487 20.9188 34.487 23.2781V30.2555C34.0547 29.8918 33.5187 29.6464 32.9323 29.5755C32.9116 29.5725 32.8909 29.5725 32.8701 29.5725C32.5888 29.5725 32.3578 29.8002 32.3578 30.084C32.3578 30.3471 32.5562 30.563 32.8139 30.5925C33.6342 30.696 34.3005 31.308 34.4693 32.1151C34.4752 32.1477 34.4811 32.1831 34.487 32.2157ZM33.033 34.9357C33.1307 34.6725 32.9975 34.3769 32.7339 34.2793C32.5296 34.2024 32.2957 34.2645 32.1594 34.436C31.4161 35.3466 29.9562 35.6837 28.5259 35.2757C26.7076 34.7553 25.5527 33.2061 25.9495 31.8224C26.0265 31.5504 25.8696 31.2696 25.6001 31.1897C25.3277 31.1129 25.0463 31.2696 24.9664 31.5386C24.6939 32.4936 24.8983 33.5165 25.5438 34.4153C25.8281 34.8115 26.1805 35.1633 26.5892 35.456C25.9851 35.9852 25.3869 36.068 25.2418 35.9231C25.0404 35.7221 24.7176 35.7221 24.5192 35.9231C24.3179 36.1212 24.3179 36.4464 24.5192 36.6445C24.7591 36.884 25.0908 37.0082 25.4698 37.0082C25.6356 37.0082 25.8133 36.9845 25.994 36.9343C26.4974 36.7983 27.0127 36.4819 27.4509 36.0473C27.4717 36.0266 27.4924 36.0059 27.5102 35.9852C27.7441 36.0887 27.9899 36.1803 28.2446 36.2513C28.7361 36.3932 29.2336 36.4612 29.7163 36.4612C31.0134 36.4612 32.2098 35.9734 32.9383 35.0894C32.9768 35.048 33.0093 34.9948 33.033 34.9357ZM32.4171 39.9854C32.6155 39.7873 32.6155 39.4621 32.4171 39.264C31.7982 38.6461 30.9334 38.3593 29.9799 38.4569C29.0649 38.5485 28.1735 38.989 27.4687 39.6927C26.3316 40.828 25.917 42.4452 26.4352 43.7195C26.4767 43.8259 26.5537 43.9205 26.6603 43.9797C26.7402 44.024 26.8261 44.0477 26.9149 44.0477C27.0926 44.0477 27.2644 43.956 27.3591 43.7904C27.4361 43.6544 27.448 43.4889 27.3887 43.344C27.0186 42.4452 27.3414 41.2685 28.1942 40.417C29.2781 39.335 30.8476 39.1428 31.6945 39.9883C31.8929 40.1864 32.2187 40.1864 32.4171 39.9854ZM31.6175 25.5842C32.3963 24.7357 32.6658 23.5767 32.2927 22.6483C32.269 22.5803 32.2275 22.5183 32.1742 22.465C31.9729 22.264 31.6501 22.267 31.4517 22.465C31.3066 22.6099 31.2622 22.8287 31.3391 23.0209C31.579 23.6063 31.354 24.4075 30.7913 24.9692C30.7498 25.0106 30.7054 25.049 30.664 25.0875C30.6492 25.0993 30.6344 25.1111 30.6225 25.123C29.9148 25.7083 28.9879 25.7882 28.4785 25.2767C28.2801 25.0786 27.9544 25.0786 27.756 25.2767C27.5546 25.4777 27.5546 25.8 27.756 25.9981C28.1705 26.412 28.7302 26.6337 29.3491 26.6337C29.438 26.6337 29.5298 26.6308 29.6216 26.619C30.0243 26.5776 30.4182 26.4504 30.7824 26.2464C30.9512 26.7697 30.8268 27.3108 30.4508 27.5237C30.205 27.6626 30.1191 27.973 30.2583 28.2184C30.353 28.384 30.5248 28.4786 30.7054 28.4786C30.7913 28.4786 30.8772 28.4579 30.9571 28.4106C31.4339 28.1416 31.7508 27.6715 31.8515 27.0861C31.9373 26.5923 31.8544 26.0661 31.6175 25.5842ZM30.5751 48.8343C30.8979 47.8113 29.9977 46.6464 28.5259 46.1852C27.4272 45.8393 26.3256 45.993 25.7215 46.5725C25.6208 46.6671 25.5587 46.8002 25.5587 46.948C25.5587 47.2289 25.7867 47.4595 26.071 47.4595C26.2042 47.4595 26.3316 47.4092 26.4263 47.3146C26.7047 47.0456 27.4095 46.9066 28.2209 47.1609C29.1626 47.4565 29.7252 48.1277 29.5979 48.5268C29.512 48.7958 29.663 49.0826 29.9325 49.1683C29.9829 49.1831 30.0362 49.192 30.0865 49.192C30.3056 49.192 30.507 49.053 30.5751 48.8343Z" fill="#5D487A"/>
</g>
<defs>
<clipPath id="clip0">
<rect width="32" height="34" fill="white" transform="translate(19 19)"/>
</clipPath>
</defs>
</svg>
