<svg width="71" height="71" viewBox="0 0 71 71" fill="none" xmlns="http://www.w3.org/2000/svg">
<circle cx="35.5" cy="35.5" r="34.75" stroke="#5D487A" stroke-width="1.5"/>
<g clip-path="url(#clip0)">
<path d="M48.9833 40.6806C48.9309 42.0995 48.6425 50.0681 42.0944 53.8586C41.4076 54.2565 40.6841 54.5916 39.9344 54.8586C41.4076 53.3874 41.8899 51.3508 41.7588 49.7644C41.5596 47.3717 40.034 45.4136 39.4311 44.8901C39.3157 44.7906 38.7914 44.356 38.2462 43.6335C38.2252 43.6021 38.026 43.3403 37.853 43.0576C37.2081 42.0105 37.0037 40.8796 36.9146 40.3508C36.7206 39.2199 36.7573 38.199 36.8779 37.3717C36.3274 37.8063 35.6406 38.4293 34.9695 39.2775C34.6812 39.6387 34.0153 40.5183 33.4281 41.801C32.7361 43.3141 32.4582 44.733 32.3481 45.8325C32.0808 45.6178 31.7085 45.2565 31.4254 44.7016C30.854 43.5916 31.0689 42.5079 31.1476 42.1675C30.7386 42.5864 30.1934 43.2147 29.6953 44.0628C29.3441 44.6597 28.1959 46.6544 28.2903 49.2042C28.3112 49.8272 28.4266 52.9581 30.6547 55C28.8198 54.3979 27.1159 53.4084 25.7109 52.0105C22.7487 49.0681 21.7788 44.9791 22.041 41.7958C22.4342 37.0052 25.4907 33.0942 26.6965 32.0419C26.9272 31.8377 27.9705 30.9738 29.0662 29.5236C29.1134 29.4607 29.5066 28.9319 29.8526 28.377C31.1476 26.2827 31.5512 24.0209 31.7347 22.9634C32.1227 20.7016 32.0493 18.6597 31.8134 17C32.9091 17.8743 34.2827 19.1204 35.6353 20.8168C36.2068 21.534 37.5437 23.2984 38.718 25.8639C40.1021 28.8901 40.6631 31.7225 40.8728 33.9267C41.4023 33.4974 42.152 32.7696 42.7235 31.6702C43.8664 29.445 43.4417 27.2827 43.2792 26.6021C44.0971 27.445 45.1823 28.7016 46.1837 30.3927C46.8757 31.5864 49.172 35.5759 48.9833 40.6806Z" fill="#5D487A"/>
</g>
<defs>
<clipPath id="clip0">
<rect width="27" height="38" fill="white" transform="translate(22 16)"/>
</clipPath>
</defs>
</svg>
