<svg width="71" height="71" viewBox="0 0 71 71" fill="none" xmlns="http://www.w3.org/2000/svg">
<circle cx="35.5" cy="35.5" r="34.75" stroke="#5D487A" stroke-width="1.5"/>
<path d="M35.3703 52C33.6046 50.5852 31.8202 49.1894 30.0638 47.7461C27.7282 45.8281 25.4487 43.8531 23.4868 41.5362C21.6463 39.3713 20.1328 37.007 19.3574 34.2059C18.1616 29.8476 20.0301 25.6602 24.0099 23.8086C28.1673 21.8716 33.0814 23.5238 35.2955 27.5972C35.3609 27.7112 35.4263 27.8156 35.445 27.8441C36.127 27.018 36.7249 26.097 37.491 25.3754C41.611 21.5298 48.4309 22.6977 51.0374 27.6922C52.2893 30.0945 52.2239 32.6012 51.3925 35.0985C50.2714 38.4598 48.1039 41.109 45.6562 43.5587C43.7504 45.4578 37.6498 50.4618 35.3703 52Z" fill="#5D487A"/>
</svg>
