<svg width="71" height="71" viewBox="0 0 71 71" fill="none" xmlns="http://www.w3.org/2000/svg">
<circle cx="35.5" cy="35.5" r="34.75" stroke="#5D487A" stroke-width="1.5"/>
<g clip-path="url(#clip0)">
<path d="M36.0246 27.6406C36.0141 27.6406 36.0037 27.6406 35.9932 27.6406L36.0246 37.5333L28.332 43.6528C30.1192 45.9569 32.8994 47.426 36.0246 47.426C41.4282 47.426 45.8075 42.9975 45.8075 37.5333C45.8075 32.0691 41.4282 27.6406 36.0246 27.6406Z" fill="#5D487A"/>
<path d="M52.8313 27.4715L51.4725 25.4211C51.1694 24.9667 50.5528 24.8398 50.1033 25.1463L47.9503 26.5943C47.783 26.4146 47.6158 26.2244 47.4381 26.0553C45.9539 24.5545 44.2189 23.3707 42.2958 22.5463C40.9997 21.9967 39.6515 21.6163 38.2718 21.4154V20.0943H39.1393C39.641 20.0943 40.0382 19.6821 40.0382 19.1854V15.9089C40.0382 15.4016 39.6305 15 39.1393 15H32.8473C32.3456 15 31.9484 15.4122 31.9484 15.9089V19.1748C31.9484 19.6821 32.356 20.0837 32.8473 20.0837H33.7252V21.4154C32.3351 21.6163 30.9868 21.9862 29.6908 22.5463C27.7677 23.3707 26.0326 24.5545 24.5485 26.0553C24.3708 26.235 24.2036 26.4146 24.0363 26.5943L21.8832 25.1463C21.4338 24.8398 20.8171 24.9667 20.514 25.4211L19.1657 27.4715C18.8626 27.926 18.9881 28.5496 19.4375 28.8561L21.5383 30.2724C21.3815 30.5894 21.2248 30.9276 21.0889 31.2553C20.2423 33.274 19.8138 35.4195 19.8138 37.6285C19.8138 39.8374 20.2423 41.9829 21.0889 44.0016C21.9041 45.9463 23.0748 47.7008 24.5589 49.2016C26.0431 50.7024 27.7781 51.8862 29.7013 52.7106C31.6976 53.5667 33.8193 54 36.0037 54C38.1882 54 40.3099 53.5667 42.3062 52.7106C44.2294 51.8862 45.9644 50.7024 47.4486 49.2016C48.9327 47.7008 50.1033 45.9463 50.9186 44.0016C51.7652 41.9829 52.1937 39.8374 52.1937 37.6285C52.1937 35.4195 51.7652 33.274 50.9186 31.2553C50.7827 30.9171 50.6259 30.5894 50.4692 30.2724L52.57 28.8561C53.009 28.5496 53.1344 27.9366 52.8313 27.4715ZM36.0037 49.9415C29.2936 49.9415 23.8273 44.4244 23.8273 37.6285C23.8273 30.8325 29.2832 25.3154 36.0037 25.3154C42.7243 25.3154 48.1802 30.8325 48.1802 37.6285C48.1802 44.4244 42.7139 49.9415 36.0037 49.9415Z" fill="#5D487A"/>
</g>
<defs>
<clipPath id="clip0">
<rect width="34" height="39" fill="white" transform="translate(19 15)"/>
</clipPath>
</defs>
</svg>
