<svg width="71" height="71" viewBox="0 0 71 71" fill="none" xmlns="http://www.w3.org/2000/svg">
<circle cx="35.5" cy="35.5" r="34.75" stroke="#5D487A" stroke-width="1.5"/>
<path d="M43.5509 34.1897L43.3169 34.1328C42.8905 34.0302 42.6301 33.601 42.732 33.1756L45.9396 19.6117C46.0415 19.1825 46.4679 18.9204 46.8905 19.0229L47.1245 19.0799C47.5509 19.1825 47.8113 19.6117 47.7094 20.0371L44.5018 33.601C44.4 34.0264 43.9735 34.2923 43.5509 34.1897Z" fill="#5D487A"/>
<path d="M52 35.8041H50.9547C50.9547 35.8003 50.9547 35.7965 50.9547 35.7927C50.9547 34.3911 50.0642 33.1795 48.7736 32.6021C48.6189 30.7713 46.9434 29.3317 44.8981 29.3317C43.2943 29.3317 41.9132 30.2205 41.3208 31.4892C40.7774 30.1256 39.3472 29.1494 37.6679 29.1494C36.4943 29.1494 35.4415 29.6242 34.7283 30.3763C34.7057 30.3269 34.6792 30.2775 34.6528 30.2281L33.8038 31.0828C34.2075 31.4094 34.5358 31.8158 34.7509 32.2754C35.4113 31.569 36.3887 31.1208 37.483 31.1208C39.0453 31.1208 40.3736 32.0362 40.8755 33.3162C41.4264 32.1273 42.7057 31.2917 44.1962 31.2917C46.0943 31.2917 47.6491 32.6439 47.7925 34.3607C48.4792 34.6722 49.0415 35.1774 49.4 35.7965H38.0679L38.3472 36.0776L33.2528 41.2129L28.4981 36.427L23.7434 41.2129L19 36.4384C19.2113 45.0645 26.517 51.9964 35.4981 51.9964C44.6113 51.9964 52 44.8594 52 36.0548C52 35.9712 52 35.8877 52 35.8041Z" fill="#5D487A"/>
<path d="M33.2529 22.9998L28.4982 27.7857L23.7435 22.9998L20.2529 26.5132L25.0077 31.2991L20.2529 36.0888L23.7435 39.6023L28.4982 34.8126L33.2529 39.6023L36.7473 36.0888L31.9888 31.2991L36.7473 26.5132L33.2529 22.9998Z" fill="#5D487A"/>
</svg>
