<svg width="71" height="71" viewBox="0 0 71 71" fill="none" xmlns="http://www.w3.org/2000/svg">
<g clip-path="url(#clip0)">
<path d="M41.716 34.2718L42.7124 35.9922L35.7302 39.8798C35.7378 39.8724 35.7378 39.8575 35.7454 39.85L30.2843 42.8886L30.2691 42.8663C30.0257 43.0376 29.7671 43.2014 29.4933 43.3504C25.3557 45.6517 20.0695 44.2292 17.7193 40.1777C15.3691 36.1188 16.8294 30.9502 20.967 28.6415C24.4506 26.7052 28.7327 27.4052 31.41 30.0863L33.7222 28.7979C32.2847 27.1669 30.3832 25.9827 28.2155 25.3944C25.3252 24.6124 22.2981 24.9848 19.6892 26.437C17.0804 27.8893 15.2017 30.2427 14.4107 33.0802C13.6121 35.9103 13.9924 38.8744 15.4755 41.4289C16.9587 43.9834 19.3622 45.8155 22.2524 46.5975C25.1427 47.3795 28.1699 47.0071 30.7787 45.5548L43.9978 38.2041L44.9714 39.8873L48.4093 34.3687L41.716 34.2718Z" fill="#5D487A"/>
<path d="M54.5249 30.5781C53.0494 28.0236 50.6383 26.1915 47.748 25.4095C44.8578 24.6275 41.8306 24.9999 39.2218 26.4522L26.0027 33.8029L25.0291 32.1197L21.0664 37.7128L28.1932 37.5713L27.2805 35.9999L27.9574 35.6201L27.9498 35.6126L39.9824 28.9248L39.9976 28.9471C40.1573 28.8428 40.3246 28.7386 40.4996 28.6492C44.6372 26.3479 49.9233 27.7704 52.2736 31.8218C54.6238 35.8733 53.1711 41.0493 49.0335 43.3506C45.5347 45.3019 41.2298 44.5869 38.5601 41.8835L36.2479 43.1719C37.693 44.8252 39.6021 46.0168 41.785 46.6052C44.6752 47.3872 47.7024 47.0148 50.3112 45.5625C52.9201 44.1103 54.7911 41.7568 55.5898 38.9268C56.3884 36.0967 56.0081 33.1326 54.5249 30.5781Z" fill="#5D487A"/>
</g>
<circle cx="35.5" cy="35.5" r="34.75" stroke="#5D487A" stroke-width="1.5"/>
<defs>
<clipPath id="clip0">
<rect width="42" height="22" fill="white" transform="translate(14 25)"/>
</clipPath>
</defs>
</svg>
