<svg width="71" height="71" viewBox="0 0 71 71" fill="none" xmlns="http://www.w3.org/2000/svg">
<circle cx="35.5" cy="35.5" r="34.75" stroke="#5D487A" stroke-width="1.5"/>
<g clip-path="url(#clip0)">
<path d="M52.5104 32.9712C51.7098 30.1539 48.7601 26.2397 44.2494 27.1295C40.9469 27.7812 39.526 26.3756 38.7882 25.006C38.2428 23.5755 38.0146 21.9885 38.4728 20H34.7321C33.976 24.5306 35.8803 27.684 37.3133 30.0525C38.1435 31.4254 38.8605 32.4519 38.8605 33.9581C38.8605 35.3551 38.3927 39.6709 32.3739 40.4231C30.325 40.6784 28.7273 40.2211 26.4763 38.7355C24.6974 37.562 22.6258 37.4434 20.7921 38.4097C18.4897 39.6236 17.0009 42.3136 17 45.2624C17 45.9759 17.0845 46.6791 17.2491 47.3669H21.0883C20.7616 46.545 20.6719 45.8134 20.6719 45.2641C20.6727 43.4209 21.6319 42.0772 22.5222 41.6078C22.9734 41.3696 23.4203 41.3284 23.8751 41.4762C27.0565 42.7383 26.8857 47.3712 32.0368 49.7904C42.2335 54.5798 55.7485 44.3691 52.5104 32.9712Z" fill="#5D487A"/>
</g>
<defs>
<clipPath id="clip0">
<rect width="36" height="31" fill="white" transform="translate(17 20)"/>
</clipPath>
</defs>
</svg>
