<svg width="71" height="71" viewBox="0 0 71 71" fill="none" xmlns="http://www.w3.org/2000/svg">
<circle cx="35.5" cy="35.5" r="34.75" stroke="#5D487A" stroke-width="1.5"/>
<path d="M36.0012 17C33.5011 23.3813 24 32.725 24 41.8171C24 48.5437 29.3725 54 36.0012 54C42.63 54 48.0025 48.5437 48.0025 41.8171C48 32.725 38.4065 23.2653 36.0012 17ZM33.5211 51.3557C30.0368 50.411 27.3219 47.5201 26.5576 43.8941C26.3553 42.8038 26.3228 41.6913 26.4077 40.5986C26.695 37.8951 27.8864 35.0905 29.4199 32.3451C28.848 34.8463 27.9563 39.6366 28.8804 43.4501C30.439 49.8831 33.7509 51.3927 33.7509 51.3927C33.7509 51.3927 33.6684 51.3829 33.5211 51.3557Z" fill="#5D487A"/>
</svg>
