<svg width="71" height="71" viewBox="0 0 71 71" fill="none" xmlns="http://www.w3.org/2000/svg">
<circle cx="35.5" cy="35.5" r="34.75" stroke="#5D487A" stroke-width="1.5"/>
<g clip-path="url(#clip0)">
<path d="M35.6176 37.2368C30.5838 40.9474 26.9659 47.1842 31.6063 52.3158C35.3029 45.8421 42.6962 37.6316 48.2018 35.1842C42.8535 37.9474 34.9097 48.5263 31.8423 55C39.2355 51.5263 52.0558 54.5263 52.9996 32.7369C48.1232 32.1053 40.8086 33.4474 35.6176 37.2368Z" fill="#5D487A"/>
<path d="M27.2808 36.7633C26.1797 35.4212 25.0786 34.0791 23.8988 32.8159C22.719 31.5527 21.5392 30.2106 20.2808 29.0264C21.6965 30.0527 22.955 31.3159 24.2134 32.5001C25.4718 33.6843 26.7302 34.9475 27.91 36.2106C29.0111 37.3159 30.1123 38.5001 31.2134 39.6843C31.4493 39.4475 31.6853 39.1317 31.9213 38.8949C33.101 37.6317 33.2583 35.658 32.2359 34.3159C29.719 31.0001 25.0786 27.6054 17.9999 26.1843C17.9999 26.1843 17.3707 38.0264 25.7864 43.237C26.7302 43.7896 27.6741 44.1843 28.6179 44.3422C29.0111 43.0791 29.6404 41.8949 30.5055 40.7896C29.4044 39.3685 28.3819 38.1054 27.2808 36.7633Z" fill="#5D487A"/>
<path d="M35.0679 34.8684C35.1466 34.2368 35.2252 33.6842 35.3039 33.0526C35.4612 31.7105 35.6971 30.4474 36.0117 29.1842C36.2477 27.9211 36.5623 26.5789 36.8769 25.3158C37.1915 24.0526 37.5061 22.7895 37.978 21.5263C37.6634 22.7895 37.4275 24.0526 37.2702 25.3947C37.1129 26.6579 36.9556 28 36.8769 29.2632C36.7983 30.5263 36.6409 31.8684 36.6409 33.1316C36.6409 33.8421 36.6409 34.4737 36.6409 35.1842C37.978 35.1053 39.3938 34.0789 40.6522 31.6316C44.0342 25.3158 39.9443 16 39.9443 16C39.9443 16 31.9218 21.2895 32.4724 29.7368C32.6297 32.1842 33.6522 34.1579 35.0679 34.8684Z" fill="#5D487A"/>
</g>
<defs>
<clipPath id="clip0">
<rect width="35" height="39" fill="white" transform="translate(18 16)"/>
</clipPath>
</defs>
</svg>
