<svg width="20" height="20" viewBox="0 0 20 20" fill="none" xmlns="http://www.w3.org/2000/svg">
<path fill-rule="evenodd" clip-rule="evenodd" d="M3.72 2.00002H19.5C19.7761 2.00002 20 2.22387 20 2.50002V3.00002C19.9928 3.8299 19.7687 4.64346 19.35 5.36002L17 9.49002C16.4915 10.404 15.5357 10.979 14.49 11H8.26C8.04386 10.9954 7.82904 10.9652 7.62 10.91L6.62 13H17.5C17.7761 13 18 13.2239 18 13.5V14.5C18 14.7762 17.7761 15 17.5 15H5C4.72633 15.0063 4.4704 14.865 4.33 14.63L4.11 14.25C3.99438 14.0275 3.99438 13.7626 4.11 13.54L5.97 9.84002C5.86843 9.73275 5.77797 9.61549 5.7 9.49002L1.42 2.00002H0.5C0.223858 2.00002 0 1.77616 0 1.50002V0.500016C0 0.223873 0.223858 1.58319e-05 0.5 1.58319e-05H1.42C2.13737 -0.00283218 2.80132 0.378747 3.16 1.00002L3.72 2.00002ZM6 16C4.89543 16 4 16.8954 4 18C4 19.1046 4.89543 20 6 20C7.10457 20 8 19.1046 8 18C8 16.8954 7.10457 16 6 16ZM18 18C18 19.1046 17.1046 20 16 20C14.8954 20 14 19.1046 14 18C14 16.8954 14.8954 16 16 16C17.1046 16 18 16.8954 18 18Z" fill="#63416f"/>
</svg>
